<svg xmlns="http://www.w3.org/2000/svg" width="100" height="100" viewBox="0 0 100 100"><defs>
    <linearGradient id="bg" x1="0" y1="0" x2="0" y2="1"><stop offset="0" stop-color="oklch(27% 0.014 265)"/><stop offset="1" stop-color="oklch(15% 0.012 265)"/></linearGradient>
    <linearGradient id="sig" x1="0" y1="0" x2="0" y2="1"><stop offset="0" stop-color="oklch(74% 0.17 282)"/><stop offset="1" stop-color="oklch(50% 0.17 270)"/></linearGradient>
    <linearGradient id="bw" x1="0" y1="0" x2="0" y2="1"><stop offset="0" stop-color="oklch(58% 0.20 272)"/><stop offset="1" stop-color="oklch(80% 0.14 284)"/></linearGradient>
    <clipPath id="cl"><path d="M 100 50 C 100 56.28, 99.97 64.7, 99.92 68.84 C 99.87 72.98, 99.8 73.11, 99.69 74.82 C 99.59 76.54, 99.47 77.83, 99.31 79.12 C 99.16 80.41, 98.98 81.5, 98.77 82.55 C 98.56 83.6, 98.33 84.54, 98.07 85.43 C 97.81 86.32, 97.52 87.13, 97.2 87.89 C 96.89 88.66, 96.54 89.36, 96.17 90.03 C 95.79 90.7, 95.38 91.32, 94.94 91.9 C 94.5 92.48, 94.04 93.02, 93.53 93.53 C 93.02 94.04, 92.48 94.5, 91.9 94.94 C 91.32 95.38, 90.7 95.79, 90.03 96.17 C 89.36 96.54, 88.66 96.89, 87.89 97.2 C 87.13 97.52, 86.32 97.81, 85.43 98.07 C 84.54 98.33, 83.6 98.56, 82.55 98.77 C 81.5 98.98, 80.41 99.16, 79.12 99.31 C 77.83 99.47, 76.54 99.59, 74.82 99.69 C 73.11 99.8, 72.98 99.87, 68.84 99.92 C 64.7 99.97, 56.28 100, 50 100 C 43.72 100, 35.3 99.97, 31.16 99.92 C 27.02 99.87, 26.89 99.8, 25.18 99.69 C 23.46 99.59, 22.17 99.47, 20.88 99.31 C 19.59 99.16, 18.5 98.98, 17.45 98.77 C 16.4 98.56, 15.46 98.33, 14.57 98.07 C 13.68 97.81, 12.87 97.52, 12.11 97.2 C 11.34 96.89, 10.64 96.54, 9.97 96.17 C 9.3 95.79, 8.68 95.38, 8.1 94.94 C 7.52 94.5, 6.98 94.04, 6.47 93.53 C 5.96 93.02, 5.5 92.48, 5.06 91.9 C 4.62 91.32, 4.21 90.7, 3.83 90.03 C 3.46 89.36, 3.11 88.66, 2.8 87.89 C 2.48 87.13, 2.19 86.32, 1.93 85.43 C 1.67 84.54, 1.44 83.6, 1.23 82.55 C 1.02 81.5, 0.84 80.41, 0.69 79.12 C 0.53 77.83, 0.41 76.54, 0.31 74.82 C 0.2 73.11, 0.13 72.98, 0.08 68.84 C 0.03 64.7, 0 56.28, 0 50 C 0 43.72, 0.03 35.3, 0.08 31.16 C 0.13 27.02, 0.2 26.89, 0.31 25.18 C 0.41 23.46, 0.53 22.17, 0.69 20.88 C 0.84 19.59, 1.02 18.5, 1.23 17.45 C 1.44 16.4, 1.67 15.46, 1.93 14.57 C 2.19 13.68, 2.48 12.87, 2.8 12.11 C 3.11 11.34, 3.46 10.64, 3.83 9.97 C 4.21 9.3, 4.62 8.68, 5.06 8.1 C 5.5 7.52, 5.96 6.98, 6.47 6.47 C 6.98 5.96, 7.52 5.5, 8.1 5.06 C 8.68 4.62, 9.3 4.21, 9.97 3.83 C 10.64 3.46, 11.34 3.11, 12.11 2.8 C 12.87 2.48, 13.68 2.19, 14.57 1.93 C 15.46 1.67, 16.4 1.44, 17.45 1.23 C 18.5 1.02, 19.59 0.84, 20.88 0.69 C 22.17 0.53, 23.46 0.41, 25.18 0.31 C 26.89 0.2, 27.02 0.13, 31.16 0.08 C 35.3 0.03, 43.72 0, 50 0 C 56.28 0, 64.7 0.03, 68.84 0.08 C 72.98 0.13, 73.11 0.2, 74.82 0.31 C 76.54 0.41, 77.83 0.53, 79.12 0.69 C 80.41 0.84, 81.5 1.02, 82.55 1.23 C 83.6 1.44, 84.54 1.67, 85.43 1.93 C 86.32 2.19, 87.13 2.48, 87.89 2.8 C 88.66 3.11, 89.36 3.46, 90.03 3.83 C 90.7 4.21, 91.32 4.62, 91.9 5.06 C 92.48 5.5, 93.02 5.96, 93.53 6.47 C 94.04 6.98, 94.5 7.52, 94.94 8.1 C 95.38 8.68, 95.79 9.3, 96.17 9.97 C 96.54 10.64, 96.89 11.34, 97.2 12.11 C 97.52 12.87, 97.81 13.68, 98.07 14.57 C 98.33 15.46, 98.56 16.4, 98.77 17.45 C 98.98 18.5, 99.16 19.59, 99.31 20.88 C 99.47 22.17, 99.59 23.46, 99.69 25.18 C 99.8 26.89, 99.87 27.02, 99.92 31.16 C 99.97 35.3, 100 43.72, 100 50 Z"/></clipPath></defs><g clip-path="url(#cl)"><path d="M 100 50 C 100 56.28, 99.97 64.7, 99.92 68.84 C 99.87 72.98, 99.8 73.11, 99.69 74.82 C 99.59 76.54, 99.47 77.83, 99.31 79.12 C 99.16 80.41, 98.98 81.5, 98.77 82.55 C 98.56 83.6, 98.33 84.54, 98.07 85.43 C 97.81 86.32, 97.52 87.13, 97.2 87.89 C 96.89 88.66, 96.54 89.36, 96.17 90.03 C 95.79 90.7, 95.38 91.32, 94.94 91.9 C 94.5 92.48, 94.04 93.02, 93.53 93.53 C 93.02 94.04, 92.48 94.5, 91.9 94.94 C 91.32 95.38, 90.7 95.79, 90.03 96.17 C 89.36 96.54, 88.66 96.89, 87.89 97.2 C 87.13 97.52, 86.32 97.81, 85.43 98.07 C 84.54 98.33, 83.6 98.56, 82.55 98.77 C 81.5 98.98, 80.41 99.16, 79.12 99.31 C 77.83 99.47, 76.54 99.59, 74.82 99.69 C 73.11 99.8, 72.98 99.87, 68.84 99.92 C 64.7 99.97, 56.28 100, 50 100 C 43.72 100, 35.3 99.97, 31.16 99.92 C 27.02 99.87, 26.89 99.8, 25.18 99.69 C 23.46 99.59, 22.17 99.47, 20.88 99.31 C 19.59 99.16, 18.5 98.98, 17.45 98.77 C 16.4 98.56, 15.46 98.33, 14.57 98.07 C 13.68 97.81, 12.87 97.52, 12.11 97.2 C 11.34 96.89, 10.64 96.54, 9.97 96.17 C 9.3 95.79, 8.68 95.38, 8.1 94.94 C 7.52 94.5, 6.98 94.04, 6.47 93.53 C 5.96 93.02, 5.5 92.48, 5.06 91.9 C 4.62 91.32, 4.21 90.7, 3.83 90.03 C 3.46 89.36, 3.11 88.66, 2.8 87.89 C 2.48 87.13, 2.19 86.32, 1.93 85.43 C 1.67 84.54, 1.44 83.6, 1.23 82.55 C 1.02 81.5, 0.84 80.41, 0.69 79.12 C 0.53 77.83, 0.41 76.54, 0.31 74.82 C 0.2 73.11, 0.13 72.98, 0.08 68.84 C 0.03 64.7, 0 56.28, 0 50 C 0 43.72, 0.03 35.3, 0.08 31.16 C 0.13 27.02, 0.2 26.89, 0.31 25.18 C 0.41 23.46, 0.53 22.17, 0.69 20.88 C 0.84 19.59, 1.02 18.5, 1.23 17.45 C 1.44 16.4, 1.67 15.46, 1.93 14.57 C 2.19 13.68, 2.48 12.87, 2.8 12.11 C 3.11 11.34, 3.46 10.64, 3.83 9.97 C 4.21 9.3, 4.62 8.68, 5.06 8.1 C 5.5 7.52, 5.96 6.98, 6.47 6.47 C 6.98 5.96, 7.52 5.5, 8.1 5.06 C 8.68 4.62, 9.3 4.21, 9.97 3.83 C 10.64 3.46, 11.34 3.11, 12.11 2.8 C 12.87 2.48, 13.68 2.19, 14.57 1.93 C 15.46 1.67, 16.4 1.44, 17.45 1.23 C 18.5 1.02, 19.59 0.84, 20.88 0.69 C 22.17 0.53, 23.46 0.41, 25.18 0.31 C 26.89 0.2, 27.02 0.13, 31.16 0.08 C 35.3 0.03, 43.72 0, 50 0 C 56.28 0, 64.7 0.03, 68.84 0.08 C 72.98 0.13, 73.11 0.2, 74.82 0.31 C 76.54 0.41, 77.83 0.53, 79.12 0.69 C 80.41 0.84, 81.5 1.02, 82.55 1.23 C 83.6 1.44, 84.54 1.67, 85.43 1.93 C 86.32 2.19, 87.13 2.48, 87.89 2.8 C 88.66 3.11, 89.36 3.46, 90.03 3.83 C 90.7 4.21, 91.32 4.62, 91.9 5.06 C 92.48 5.5, 93.02 5.96, 93.53 6.47 C 94.04 6.98, 94.5 7.52, 94.94 8.1 C 95.38 8.68, 95.79 9.3, 96.17 9.97 C 96.54 10.64, 96.89 11.34, 97.2 12.11 C 97.52 12.87, 97.81 13.68, 98.07 14.57 C 98.33 15.46, 98.56 16.4, 98.77 17.45 C 98.98 18.5, 99.16 19.59, 99.31 20.88 C 99.47 22.17, 99.59 23.46, 99.69 25.18 C 99.8 26.89, 99.87 27.02, 99.92 31.16 C 99.97 35.3, 100 43.72, 100 50 Z" fill="url(#bg)"/><rect x="27.6" y="35" width="4.8" height="30" rx="2.4" fill="url(#bw)" /><rect x="36.6" y="27" width="4.8" height="46" rx="2.4" fill="url(#bw)" /><rect x="45.6" y="34" width="4.8" height="32" rx="2.4" fill="url(#bw)" /><rect x="60.5" y="27" width="5" height="46" rx="1.5" fill="url(#sig)"/><rect x="55.5" y="27" width="15" height="3.6" rx="1.5" fill="url(#sig)"/><rect x="55.5" y="69.4" width="15" height="3.6" rx="1.5" fill="url(#sig)"/></g></svg>